<svg width="90" height="32" viewBox="0 0 90 32" fill="none" xmlns="http://www.w3.org/2000/svg">
<path d="M45.4777 1.97156V6.40012C45.1501 6.01585 44.7348 5.71609 44.2669 5.52618C43.7684 5.32792 43.2359 5.22931 42.6994 5.23594C41.8694 5.23594 41.1232 5.4193 40.4609 5.78603C39.8051 6.1455 39.2645 6.68339 38.9017 7.33742C38.5242 8.00538 38.3357 8.77526 38.3361 9.64705C38.3366 10.5188 38.5251 11.2917 38.9017 11.9657C39.263 12.6226 39.8038 13.1632 40.4609 13.5242C41.1475 13.8967 41.9184 14.0861 42.6994 14.0743C43.2559 14.0808 43.8081 13.9764 44.3238 13.7673C44.8064 13.5679 45.2313 13.2507 45.5598 12.8448V13.9606H47.499V1.97156H45.4777ZM45.1713 11.0679C44.9595 11.4633 44.6401 11.7907 44.2501 12.0123C43.8484 12.2299 43.3987 12.3439 42.9418 12.3439C42.4849 12.3439 42.0352 12.2299 41.6335 12.0123C41.2435 11.7902 40.9238 11.463 40.711 11.0679C40.4884 10.6269 40.3725 10.1398 40.3725 9.64576C40.3725 9.15175 40.4884 8.66465 40.711 8.22365C40.9241 7.82873 41.2437 7.50152 41.6335 7.27924C42.0352 7.0616 42.4849 6.94761 42.9418 6.94761C43.3987 6.94761 43.8484 7.0616 44.2501 7.27924C44.6398 7.50121 44.9591 7.82853 45.1713 8.22365C45.3947 8.66441 45.5111 9.15161 45.5111 9.64576C45.5111 10.1399 45.3947 10.6271 45.1713 11.0679Z" fill="#222831"/>
<path d="M49.5023 5.33228V13.9619H51.5223V5.33228H49.5023ZM51.4415 1.81838C51.1877 1.59495 50.8584 1.4764 50.5204 1.48677C50.1797 1.47683 49.8489 1.60182 49.5999 1.83454C49.4825 1.9458 49.389 2.07982 49.3251 2.22841C49.2612 2.377 49.2282 2.53705 49.2282 2.6988C49.2282 2.86055 49.2612 3.0206 49.3251 3.16919C49.389 3.31778 49.4825 3.45179 49.5999 3.56305C49.8488 3.79601 50.1796 3.92123 50.5204 3.91147C50.692 3.91741 50.8629 3.88819 51.0228 3.8256C51.1826 3.76302 51.328 3.66838 51.4499 3.54753C51.5686 3.43076 51.662 3.29089 51.7245 3.13657C51.787 2.98225 51.8172 2.81676 51.8132 2.65032C51.8165 2.49274 51.7849 2.33638 51.7205 2.19252C51.6561 2.04866 51.5606 1.92087 51.4409 1.81838H51.4415Z" fill="#222831"/>
<path d="M60.8138 5.33228V6.47837C60.4729 6.06072 60.0301 5.73793 59.5281 5.54107C58.9849 5.33039 58.4062 5.22614 57.8235 5.23403C57.0519 5.22311 56.2893 5.40062 55.6018 5.75116C54.9534 6.08318 54.4105 6.58957 54.0343 7.21334C53.6529 7.84381 53.4615 8.56844 53.4602 9.38724C53.459 10.206 53.6503 10.9332 54.0343 11.5689C54.409 12.198 54.9516 12.7104 55.6012 13.0485C56.2869 13.4046 57.0503 13.5849 57.8229 13.5734C58.3806 13.5799 58.9345 13.4815 59.4557 13.2832C59.9368 13.0994 60.3683 12.8057 60.7156 12.4254V12.8779C60.7156 13.7609 60.4949 14.4181 60.0537 14.8494C59.6124 15.2808 58.9175 15.4963 57.969 15.4958C57.3734 15.4954 56.7816 15.4003 56.2159 15.214C55.6393 15.0248 55.1627 14.7742 54.786 14.4622L53.8811 15.9813C54.3659 16.3795 54.98 16.6837 55.7233 16.894C56.4913 17.1074 57.2851 17.2133 58.0821 17.2088C61.1849 17.2088 62.7363 15.69 62.7363 12.6523V5.33228H60.8138ZM60.0136 11.1752C59.5232 11.6329 58.8955 11.8615 58.1306 11.8611C57.3549 11.8611 56.7223 11.6324 56.2327 11.1752C55.7432 10.718 55.498 10.122 55.4971 9.38724C55.4971 8.66584 55.7423 8.07889 56.2327 7.6264C56.7231 7.17391 57.3557 6.94767 58.1306 6.94767C58.8955 6.94767 59.5232 7.17391 60.0136 7.6264C60.504 8.07889 60.7492 8.66584 60.7492 9.38724C60.7492 10.1198 60.504 10.7158 60.0136 11.1752Z" fill="#222831"/>
<path d="M64.7402 5.33228V13.9619H66.7602V5.33228H64.7402ZM66.6794 1.81838C66.4255 1.59495 66.0962 1.4764 65.7582 1.48677C65.4176 1.47683 65.0868 1.60182 64.8378 1.83454C64.7204 1.9458 64.6269 2.07982 64.563 2.22841C64.4991 2.377 64.4661 2.53705 64.4661 2.6988C64.4661 2.86055 64.4991 3.0206 64.563 3.16919C64.6269 3.31778 64.7204 3.45179 64.8378 3.56305C65.0867 3.79601 65.4175 3.92123 65.7582 3.91147C65.9298 3.91741 66.1008 3.88819 66.2606 3.8256C66.4205 3.76302 66.5658 3.66838 66.6878 3.54753C66.8062 3.4306 66.8995 3.2907 66.962 3.13642C67.0245 2.98214 67.0548 2.81672 67.051 2.65032C67.0544 2.49274 67.0227 2.33638 66.9583 2.19252C66.894 2.04866 66.7985 1.92087 66.6787 1.81838H66.6794Z" fill="#222831"/>
<path d="M73.2424 12.0556C72.9407 12.2922 72.5639 12.4107 72.1118 12.4111C71.7343 12.4111 71.4408 12.3004 71.2314 12.0789C71.022 11.8574 70.9168 11.5372 70.916 11.1183V7.01359H73.2262V5.39755H70.916V3.42599H68.8959V11.1668C68.8959 12.1149 69.1545 12.8365 69.6716 13.3316C70.1887 13.8268 70.9213 14.0748 71.8694 14.0756C72.2324 14.0776 72.5939 14.0282 72.9431 13.9289C73.258 13.8445 73.5522 13.6962 73.8074 13.4932L73.2424 12.0556Z" fill="#222831"/>
<path d="M81.9205 5.33231V6.38338C81.5821 6.0109 81.1653 5.71815 80.7001 5.52623C80.21 5.32844 79.6856 5.22979 79.1571 5.23599C78.3168 5.23599 77.5656 5.41936 76.9037 5.78609C76.2499 6.14177 75.7115 6.67719 75.3523 7.32907C74.9808 7.991 74.7947 8.76368 74.7938 9.64711C74.7929 10.5305 74.9791 11.3062 75.3523 11.9742C75.7101 12.6293 76.2486 13.1678 76.9037 13.5256C77.5656 13.8915 78.3168 14.0748 79.1571 14.0757C79.7136 14.0824 80.2659 13.978 80.7815 13.7686C81.2641 13.5692 81.689 13.2521 82.0175 12.8462V13.9619H83.9406V5.33231H81.9205ZM81.225 11.6025C80.7415 12.0983 80.1261 12.3459 79.384 12.3459C78.6419 12.3459 78.0265 12.0983 77.5495 11.6025C77.0724 11.1067 76.83 10.4545 76.83 9.64711C76.83 8.83974 77.0692 8.18751 77.5495 7.69236C78.0298 7.19721 78.64 6.94899 79.384 6.94899C80.128 6.94899 80.7415 7.19592 81.225 7.69236C81.7085 8.18881 81.9522 8.83974 81.9522 9.64711C81.9522 10.4545 81.7104 11.1074 81.225 11.6025Z" fill="#222831"/>
<path d="M89.9031 12.2495C89.6766 12.3594 89.4275 12.4148 89.1758 12.4111C88.3674 12.4111 87.9634 11.9802 87.9638 11.1183V1.97156H85.9438V11.2618C85.9438 12.156 86.1944 12.8481 86.6956 13.3381C87.1967 13.828 87.894 14.0732 88.7873 14.0737C89.2009 14.0766 89.6116 14.0054 90 13.8636L89.9031 12.2495Z" fill="#222831"/>
<path d="M45.1474 25.5475C44.8351 25.2167 44.4428 24.9718 44.0084 24.8365C43.4526 24.6707 42.8852 24.5465 42.311 24.4648C41.6225 24.3458 41.1131 24.2204 40.7841 24.0847C40.4551 23.9489 40.2909 23.7208 40.2909 23.3976C40.2909 23.1073 40.4441 22.872 40.7524 22.6955C41.0608 22.5191 41.5087 22.4286 42.1022 22.4286C43.0171 22.4286 43.841 22.6441 44.574 23.075L45.3497 21.5391C44.9722 21.3124 44.4874 21.1321 43.8953 20.9981C43.312 20.8639 42.7155 20.7958 42.117 20.7951C40.9535 20.7951 40.03 21.0403 39.3465 21.5307C38.663 22.0211 38.3206 22.6755 38.3193 23.4939C38.3193 24.1183 38.484 24.6059 38.8132 24.9567C39.1297 25.2997 39.531 25.5532 39.9767 25.6917C40.5458 25.8583 41.1263 25.983 41.7137 26.0647C42.3924 26.172 42.885 26.2849 43.1914 26.4034C43.4997 26.5223 43.6529 26.7324 43.6529 27.0336C43.6529 27.6697 43.0496 27.9877 41.8429 27.9877C41.2985 27.985 40.7571 27.9058 40.2347 27.7524C39.7398 27.6179 39.2684 27.4081 38.8371 27.1306L38.0614 28.6665C38.4609 28.9457 38.9946 29.1769 39.6626 29.3601C40.3309 29.5442 41.0211 29.6368 41.7143 29.6355C42.9209 29.6355 43.8744 29.393 44.5747 28.9082C45.275 28.4234 45.6251 27.777 45.6251 26.969C45.6247 26.3545 45.4655 25.8806 45.1474 25.5475Z" fill="#222831"/>
<path d="M51.6509 27.616C51.3497 27.8526 50.9735 27.9716 50.5197 27.9716C50.1422 27.9716 49.8487 27.861 49.6393 27.64C49.4292 27.4202 49.3239 27.0989 49.3239 26.6787V22.574H51.6354V20.958H49.3239V18.9864H47.3045V20.958H49.3239L47.3045 22.565V26.7259C47.3045 27.674 47.563 28.3956 48.0802 28.8908C48.5973 29.3859 49.3299 29.6339 50.278 29.6348C50.641 29.6372 51.0027 29.5886 51.3523 29.4906C51.6678 29.4065 51.9625 29.258 52.2178 29.0543L51.6509 27.616Z" fill="#222831"/>
<path d="M60.0065 20.8933V21.9425C59.6678 21.5708 59.251 21.2787 58.786 21.0873C58.296 20.8893 57.7716 20.7902 57.2431 20.7957C56.4027 20.7957 55.6512 20.9791 54.9884 21.3458C54.3355 21.7028 53.7975 22.2379 53.437 22.8888C53.0655 23.5507 52.8798 24.3236 52.8798 25.2075C52.8798 26.0913 53.0655 26.867 53.437 27.5346C53.7953 28.1893 54.3336 28.7277 54.9884 29.086C55.6503 29.4523 56.4019 29.6352 57.2431 29.6348C57.7992 29.6418 58.3511 29.5374 58.8662 29.3277C59.349 29.129 59.7743 28.8125 60.1034 28.4072V29.5216H62.0265V20.8933H60.0065ZM59.3109 27.1635C58.8261 27.6587 58.212 27.906 57.4687 27.9056C56.7253 27.9052 56.1142 27.6578 55.6354 27.1635C55.1554 26.6671 54.9155 26.0151 54.916 25.2075C54.9164 24.3999 55.1562 23.7481 55.6354 23.2521C56.1138 22.7569 56.7249 22.5094 57.4687 22.5094C58.2125 22.5094 58.8266 22.7572 59.3109 23.2527C59.7962 23.7492 60.0386 24.401 60.0381 25.2081C60.0377 26.0153 59.7953 26.6671 59.3109 27.1635Z" fill="#222831"/>
<path d="M65.8268 22.1519V20.8933H63.9037V29.521H65.9237V25.3361C65.9237 24.4742 66.1444 23.8142 66.5857 23.3561C67.0269 22.898 67.6408 22.669 68.4273 22.669C68.5846 22.671 68.7415 22.6872 68.8959 22.7175V20.7944C67.432 20.7944 66.409 21.2469 65.8268 22.1519Z" fill="#222831"/>
<path opacity="0.5" d="M31.4409 13.7343C31.0828 10.9805 30.001 8.37084 28.3058 6.17128C26.6442 4.00955 24.4526 2.31355 21.9431 1.24756V5.85713C22.1215 5.96788 22.2967 6.08359 22.4687 6.20425C24.2771 7.46581 25.6926 9.21243 26.552 11.243C26.8904 12.0431 27.1374 12.8788 27.2883 13.7343C27.5262 15.0922 27.5262 16.4811 27.2883 17.839C26.9924 19.5035 26.3375 21.0835 25.3691 22.4693C24.5782 23.5983 23.5959 24.5803 22.4667 25.371C22.2943 25.4921 22.1192 25.6078 21.9412 25.7181V30.3309C25.1184 28.9807 27.7665 26.6281 29.4814 23.632C31.1963 20.6359 31.8838 17.1609 31.4389 13.7375L31.4409 13.7343Z" fill="#F05454"/>
<path d="M13.7343 0.132513V10.8326L9.10407 6.20233L6.16936 3.26697C5.08026 4.10462 4.10462 5.08025 3.26697 6.16936L6.20168 9.10407L10.8319 13.7343H0.132517C-0.0441722 15.0969 -0.0441722 16.4765 0.132517 17.839H10.8319L6.20168 22.4693L3.26697 25.404C4.10462 26.4931 5.08026 27.4687 6.16936 28.3064L9.10407 25.371L13.7343 20.7408V31.4409C15.0966 31.6175 16.4761 31.6175 17.8384 31.4409V0.132513C16.4761 -0.0441709 15.0966 -0.0441709 13.7343 0.132513Z" fill="#F05454"/>
</svg>
